<svg width="28" height="28" viewBox="0 0 28 28" fill="none" xmlns="http://www.w3.org/2000/svg">
<path fill-rule="evenodd" clip-rule="evenodd" d="M7 2.33333H21C23.5773 2.33333 25.6667 4.42267 25.6667 7V21C25.6667 23.5773 23.5773 25.6667 21 25.6667H7C4.42267 25.6667 2.33334 23.5773 2.33334 21V7C2.33334 4.42267 4.42267 2.33333 7 2.33333ZM14 8.45833C14.4833 8.45833 14.875 8.85009 14.875 9.33333V13.125H18.6667C19.1499 13.125 19.5417 13.5168 19.5417 14C19.5417 14.4833 19.1499 14.875 18.6667 14.875H14.875V18.6667C14.875 19.1499 14.4833 19.5417 14 19.5417C13.5168 19.5417 13.125 19.1499 13.125 18.6667V14.875H9.33334C8.85009 14.875 8.45834 14.4833 8.45834 14C8.45834 13.5168 8.85009 13.125 9.33334 13.125H13.125V9.33333C13.125 8.85009 13.5168 8.45833 14 8.45833Z" fill="#F5F5F5"/>
</svg>
