<svg width="28" height="28" viewBox="0 0 28 28" fill="none" xmlns="http://www.w3.org/2000/svg">
<path fill-rule="evenodd" clip-rule="evenodd" d="M7.875 3.79167C4.81442 3.79167 2.33334 6.27275 2.33334 9.33333V18.6667C2.33334 21.7272 4.81442 24.2083 7.875 24.2083H16.3333C19.3939 24.2083 21.875 21.7272 21.875 18.6667C21.875 18.1834 21.4832 17.7917 21 17.7917C20.5168 17.7917 20.125 18.1834 20.125 18.6667C20.125 20.7607 18.4274 22.4583 16.3333 22.4583H11.0415C11.9718 21.4671 12.5417 20.1334 12.5417 18.6667V9.33333C12.5417 7.86659 11.9718 6.53293 11.0415 5.54167H16.3333C18.4274 5.54167 20.125 7.23925 20.125 9.33333C20.125 9.81658 20.5168 10.2083 21 10.2083C21.4832 10.2083 21.875 9.81658 21.875 9.33333C21.875 6.27276 19.3939 3.79167 16.3333 3.79167H7.875ZM22.3375 16.9521C21.9958 16.6103 21.9958 16.0563 22.3375 15.7146L23.1771 14.875H16.0417C15.5584 14.875 15.1667 14.4832 15.1667 14C15.1667 13.5167 15.5584 13.125 16.0417 13.125H23.1771L22.3375 12.2854C21.9958 11.9437 21.9958 11.3897 22.3375 11.0479C22.6792 10.7062 23.2333 10.7062 23.575 11.0479L25.0833 12.5563C25.8807 13.3536 25.8807 14.6464 25.0833 15.4437L23.575 16.9521C23.2333 17.2938 22.6792 17.2938 22.3375 16.9521Z" fill="#E74C3C"/>
</svg>
