<svg width="83" height="83" viewBox="0 0 83 83" fill="none" xmlns="http://www.w3.org/2000/svg">
<path d="M40.968 82.436C63.594 82.436 81.936 64.094 81.936 41.468C81.936 18.842 63.594 0.5 40.968 0.5C18.342 0.5 0 18.842 0 41.468C0 64.094 18.342 82.436 40.968 82.436Z" fill="#FF473E"/>
<path d="M41.112 78.7279C19.1075 78.7279 1.15743 61.3792 0.187665 39.6139C0.160257 40.2287 0.143973 40.8465 0.143973 41.468C0.143973 64.094 18.486 82.436 41.112 82.436C63.738 82.436 82.08 64.094 82.08 41.468C82.08 40.8465 82.0637 40.2287 82.0363 39.6139C81.0665 61.3792 63.1165 78.7279 41.112 78.7279Z" fill="#D32A2A"/>
<path d="M66.9074 50.4337H15.0285C13.5352 50.4337 12.3246 49.2231 12.3246 47.7298V34.4399C12.3246 32.9467 13.5352 31.736 15.0285 31.736H66.9074C68.4006 31.736 69.6113 32.9467 69.6113 34.4399V47.7298C69.6113 49.2231 68.4008 50.4337 66.9074 50.4337Z" fill="white"/>
</svg>
