<svg width="24" height="24" viewBox="0 0 24 24" fill="none" xmlns="http://www.w3.org/2000/svg">
<path fill-rule="evenodd" clip-rule="evenodd" d="M4.06176 7.66955C5.48796 4.24491 8.82961 2.01026 12.5393 2.00035C16.5444 1.97629 20.1069 4.54059 21.3553 8.34614C22.6038 12.1517 21.2527 16.328 18.0117 18.6811C14.7707 21.0342 10.3813 21.0258 7.14934 18.6604L4.27934 21.5304C3.98652 21.8228 3.51216 21.8228 3.21934 21.5304C2.92689 21.2375 2.92689 20.7632 3.21934 20.4704L6.00934 17.6804C3.40324 15.0402 2.63556 11.0942 4.06176 7.66955ZM14.86 8.04197C15.1041 8.6258 15.6766 9.0044 16.3093 9.00035C17.1654 9.00035 17.8593 8.30639 17.8593 7.45035C17.8634 6.81759 17.4848 6.24506 16.901 6.00105C16.3171 5.75703 15.6437 5.88986 15.1963 6.3373C14.7488 6.78474 14.616 7.45814 14.86 8.04197Z" fill="#F5F5F5"/>
<circle cx="16.5" cy="7.5" r="2.5" fill="#F5F5F5"/>
</svg>
