<svg width="28" height="28" viewBox="0 0 24 24" fill="none" xmlns="http://www.w3.org/2000/svg">
<path fill-rule="evenodd" clip-rule="evenodd" d="M9.33338 10.6667C12.2789 10.6667 14.6667 8.27889 14.6667 5.33336C14.6667 2.38783 12.2789 0 9.33338 0C6.38784 0 4.00002 2.38783 4.00002 5.33336C4.00002 8.27889 6.38784 10.6667 9.33338 10.6667ZM9.33338 24.0001C14.4881 24.0001 18.6668 21.6123 18.6668 18.6668C18.6668 15.7212 14.4881 13.3334 9.33338 13.3334C4.1787 13.3334 0 15.7212 0 18.6668C0 21.6123 4.1787 24.0001 9.33338 24.0001ZM14.6153 10.4207C15.8856 9.10207 16.6667 7.309 16.6667 5.33347C16.6667 4.394 16.4901 3.4958 16.1682 2.67026C18.2993 2.75841 20 4.514 20 6.66681C20 8.87596 18.2091 10.6668 16 10.6668C15.5132 10.6668 15.0468 10.5799 14.6153 10.4207ZM20.6667 18.6667C20.6667 19.3851 20.507 20.0794 20.2094 20.7355C22.4847 20.0302 24 18.7703 24 17.3333C24 15.3251 21.04 13.6624 17.1824 13.3767C19.33 14.7112 20.6667 16.5879 20.6667 18.6667Z" fill="#F5F5F5"/>
</svg>
